/* XPM */
static char * note4_xpm[] = {
"22 22 2 1",
" 	c None",
".	c #000000",
"                      ",
"                      ",
"             .        ",
"             .        ",
"             .        ",
"             .        ",
"             .        ",
"             .        ",
"             .        ",
"             .        ",
"             .        ",
"             .        ",
"             .        ",
"       .......        ",
"      ........        ",
"      ........        ",
"      ........        ",
"       ......         ",
"                      ",
"                      ",
"                      ",
"                      "};
