/* XPM */
static char * note2_xpm[] = {
"22 22 2 1",
" 	c None",
".	c #000000",
"                      ",
"                      ",
"                      ",
"                      ",
"                      ",
"                      ",
"                      ",
"                      ",
"                      ",
"                      ",
"                      ",
"                      ",
"                      ",
"       ......         ",
"      ........        ",
"      ........        ",
"      ........        ",
"       ......         ",
"                      ",
"                      ",
"                      ",
"                      "};
