/* XPM */
static char * kguitar_mini_xpm[] = {
"16 16 5 1",
" 	c None",
".	c #689AFF",
"+	c #001F7C",
"@	c #000000",
"#	c #002BC9",
"                ",
"    @@@@@@@@    ",
"   @########@   ",
"  @###.##.###@  ",
" @####.+.#+###@ ",
" @####..#+####@ ",
" @####.+.#####@ ",
" @####.+#.####@ ",
" @#####+##+###@ ",
"  @##########@  ",
"  @##########@  ",
"   @########@   ",
"    @######@    ",
"     @####@     ",
"      @##@      ",
"       @@       "};
