/* XPM */
static const char * chord_xpm[] = {
"16 16 5 2",
"  	c None",
". 	c #BFC2BF",
"+ 	c #000000",
"@ 	c #0000FF",
"# 	c #969696",
". + . + . + . + . + . @ . + . . ",
". + . + . + . + . + @ @ @ + . . ",
". . . + # + # + # + # @ # + . . ",
". . . + . + . + . @ . + . + . . ",
". . . + . + . + @ @ @ + . + . . ",
". . . + # + # + # @ # + # + . . ",
". . . + . @ . + . + . + . + . . ",
". . . + @ @ @ + . + . + . + . . ",
". . . + # @ # + # + # + # + . . ",
". . . + . + . + . + . + . + . . ",
". . . + . + . + . + . + . + . . ",
". . . + # + # + # + # + # + . . ",
". . . + . + . + . + . + . + . . ",
". . . + . + . + . + . + . + . . ",
". . . + # + # + # + # + # + . . ",
". . . + . + . + . + . + . + . . "};
