/* XPM */
static char * kguitar_large_xpm[] = {
"48 48 279 2",
"  	c None",
". 	c #000000",
"+ 	c #212AFF",
"@ 	c #1F26FF",
"# 	c #1E26FF",
"$ 	c #1E25FF",
"% 	c #1E24FF",
"& 	c #1E22FF",
"* 	c #1E21FF",
"= 	c #1E20FF",
"- 	c #1E1EFF",
"; 	c #1E1EFC",
"> 	c #1A19DB",
", 	c #212DFF",
"' 	c #1F29FF",
") 	c #1F2AFF",
"! 	c #1F27FF",
"~ 	c #1B22EF",
"{ 	c #1B20E9",
"] 	c #1B20E7",
"^ 	c #1B1FE6",
"/ 	c #1B1EE6",
"( 	c #1B1EE5",
"_ 	c #1B1DE4",
": 	c #1B1CE3",
"< 	c #1B1BE2",
"[ 	c #1B1BE1",
"} 	c #1B1AE0",
"| 	c #1A17D6",
"1 	c #1A18DA",
"2 	c #1D1AF3",
"3 	c #1E19F7",
"4 	c #1A15D3",
"5 	c #212EFF",
"6 	c #1B25F2",
"7 	c #1B23EB",
"8 	c #1A21E7",
"9 	c #191FDB",
"0 	c #181DCE",
"a 	c #171CCC",
"b 	c #171BCB",
"c 	c #171ACB",
"d 	c #171ACA",
"e 	c #1719C9",
"f 	c #1718C8",
"g 	c #1717C7",
"h 	c #1717C6",
"i 	c #1716C5",
"j 	c #1816C6",
"k 	c #1916CD",
"l 	c #1A16D8",
"m 	c #1B16DB",
"n 	c #1914CF",
"o 	c #1510AB",
"p 	c #212FFF",
"q 	c #1922E2",
"r 	c #181FD0",
"s 	c #171ECF",
"t 	c #171DCE",
"u 	c #171CCD",
"v 	c #1719C8",
"w 	c #1715C5",
"x 	c #1715C4",
"y 	c #1714C3",
"z 	c #1713C2",
"A 	c #1713C1",
"B 	c #1813C2",
"C 	c #1812C0",
"D 	c #1912CA",
"E 	c #1811C5",
"F 	c #1F2BFF",
"G 	c #1B24EE",
"H 	c #1921DD",
"I 	c #171BCC",
"J 	c #1714C2",
"K 	c #1712C1",
"L 	c #1712C0",
"M 	c #1711BF",
"N 	c #1811BF",
"O 	c #1911C7",
"P 	c #1910C6",
"Q 	c #140CA3",
"R 	c #1922E3",
"S 	c #1820D1",
"T 	c #689AFF",
"U 	c #1710BE",
"V 	c #170FBD",
"W 	c #1810BE",
"X 	c #170EB8",
"Y 	c #130B99",
"Z 	c #1F2CFF",
"` 	c #1923E3",
" .	c #171FD0",
"..	c #001F7C",
"+.	c #1710BF",
"@.	c #170FBC",
"#.	c #170EBB",
"$.	c #180EBC",
"%.	c #150CAA",
"&.	c #0E076D",
"*.	c #1B25EC",
"=.	c #171ED0",
"-.	c #170DBB",
";.	c #170DBA",
">.	c #170CB5",
",.	c #110887",
"'.	c #1E29FF",
").	c #1716C6",
"!.	c #170EBC",
"~.	c #170CB9",
"{.	c #170BB8",
"].	c #140AA1",
"^.	c #0B0557",
"/.	c #1B25EF",
"(.	c #1A23E7",
"_.	c #181FD1",
":.	c #170CB8",
"<.	c #170BB7",
"[.	c #1409A0",
"}.	c #080442",
"|.	c #1C25F6",
"1.	c #1A21E4",
"2.	c #171DCD",
"3.	c #170AB6",
"4.	c #1509A4",
"5.	c #0A0451",
"6.	c #1F28FF",
"7.	c #1A22E5",
"8.	c #1719CA",
"9.	c #170AB7",
"0.	c #170AB5",
"a.	c #1709B0",
"b.	c #110683",
"c.	c #1E27FF",
"d.	c #1718C7",
"e.	c #1709B6",
"f.	c #1708B5",
"g.	c #14079D",
"h.	c #0B0355",
"i.	c #1B23ED",
"j.	c #1A21E5",
"k.	c #181ECE",
"l.	c #1E54EA",
"m.	c #1709B5",
"n.	c #1708B3",
"o.	c #14069C",
"p.	c #080241",
"q.	c #1A20DF",
"r.	c #1708B4",
"s.	c #1707B2",
"t.	c #08023E",
"u.	c #1A20E3",
"v.	c #191FDD",
"w.	c #170CBA",
"x.	c #1707B3",
"y.	c #1707B1",
"z.	c #140595",
"A.	c #070139",
"B.	c #1519B5",
"C.	c #161AC3",
"D.	c #171BC9",
"E.	c #171AC9",
"F.	c #1711C0",
"G.	c #1606A5",
"H.	c #0D0362",
"I.	c #020010",
"J.	c #1619BC",
"K.	c #181BCC",
"L.	c #1706B1",
"M.	c #14069A",
"N.	c #08023B",
"O.	c #191CDA",
"P.	c #191CD8",
"Q.	c #1710BD",
"R.	c #1706B2",
"S.	c #1706B0",
"T.	c #140599",
"U.	c #08013B",
"V.	c #1A1DDE",
"W.	c #191BD9",
"X.	c #1707B4",
"Y.	c #1705AE",
"Z.	c #140494",
"`.	c #070138",
" +	c #1516B2",
".+	c #1617BF",
"++	c #1718C6",
"@+	c #1705AF",
"#+	c #1604A3",
"$+	c #0D0261",
"%+	c #1516B3",
"&+	c #1717C5",
"*+	c #1705B1",
"=+	c #1704AE",
"-+	c #140493",
";+	c #070135",
">+	c #1313A3",
",+	c #1616B9",
"'+	c #1716C3",
")+	c #1704AF",
"!+	c #0D0260",
"~+	c #01000C",
"{+	c #1514B0",
"]+	c #1715C3",
"^+	c #1704B0",
"/+	c #1704AD",
"(+	c #140392",
"_+	c #13119E",
":+	c #1513B2",
"<+	c #1714C0",
"[+	c #1714C1",
"}+	c #1705B0",
"|+	c #15039E",
"1+	c #0C025B",
"2+	c #01000B",
"3+	c #0F0D7F",
"4+	c #1412A9",
"5+	c #1713BF",
"6+	c #1603A2",
"7+	c #010009",
"8+	c #1411A9",
"9+	c #1712BF",
"0+	c #1703AC",
"a+	c #070034",
"b+	c #130F9A",
"c+	c #1511AE",
"d+	c #1711BC",
"e+	c #1711BE",
"f+	c #1703AD",
"g+	c #0C015A",
"h+	c #0F0B7C",
"i+	c #140FA7",
"j+	c #1710BB",
"k+	c #0D0160",
"l+	c #140EA6",
"m+	c #170FBB",
"n+	c #1703AF",
"o+	c #140291",
"p+	c #070033",
"q+	c #130C97",
"r+	c #150EAA",
"s+	c #170EB9",
"t+	c #15029D",
"u+	c #0F0976",
"v+	c #140C9F",
"w+	c #170DB6",
"x+	c #0C015B",
"y+	c #010007",
"z+	c #0E0870",
"A+	c #140B9D",
"B+	c #000006",
"C+	c #0E076F",
"D+	c #140A9C",
"E+	c #170AB3",
"F+	c #0E066E",
"G+	c #14099B",
"H+	c #1709B2",
"I+	c #1709B4",
"J+	c #0E056D",
"K+	c #14089A",
"L+	c #1708B0",
"M+	c #0E056C",
"N+	c #140697",
"O+	c #1707AE",
"P+	c #15029C",
"Q+	c #0D0467",
"R+	c #120589",
"S+	c #1606A4",
"T+	c #1705AD",
"U+	c #13028F",
"V+	c #0B0156",
"W+	c #08023F",
"X+	c #0D0365",
"Y+	c #140495",
"Z+	c #1704A9",
"`+	c #15039D",
" @	c #05002B",
".@	c #11027D",
"+@	c #0B0154",
"                                                                                                ",
"                                                                                                ",
"                                                                                                ",
"                                  . . . . . . . . . . . . . .                                   ",
"                          . . . . + @ # $ $ % & & * = = - ; > . . . .                           ",
"                        . , ' ) + ! ~ { ] ^ / ( _ : : < [ } | 1 2 3 4 .                         ",
"                    . . 5 ) 6 7 8 9 0 a b c d e f f g h i j j k l m n o . .                     ",
"                  . p , ' q r s t u a b c d e v f g h i w x y z A B B C D E .                   ",
"                . p F G H s s t u a I c d e v f g h i w x y J z K L M N O P Q .                 ",
"              . p F R S s s t u a T T T e v f g h i T T T J z K L M U U V W X Y .               ",
"            . Z ) `  .s s t u a I T T T ....g h i w T T T ....L M +.U V @.#.$.%.&..             ",
"            . F *.S =.s t u a I b T T T ....h i i T T T T ....M +.U V @.#.-.;.>.,..             ",
"          . '.'.H =.s t u a I b d T T T ....).i T T T T ......M U V @.!.-.;.~.{.].^..           ",
"          . /.(._.s t u u I b d e T T T ....i T T T T ......M U V @.!.-.;.~.:.<.[.}..           ",
"          . |.1.s t 2.u I b d e e T T T ....T T T T ......M U V @.!.-.;.~.~.{.3.4.5..           ",
"          . 6.7.t 2.u I b d 8.e f T T T ..T T T T ......M U V @.!.-.;.~.~.{.9.0.a.b..           ",
"        . c.c.9 2.u I b d 8.e f d.T T T T T T T ......M U V @.!.#.;.~.~.{.9.3.e.f.g.h..         ",
"        . i.j.k.u l.l.l.l.l.f d.g T T T T T T T ....M U V V !.#.l.l.l.l.l.3.e.m.n.o.p..         ",
"        . 8 q.u I b ..........g ).T T T ..T T T T ..U V V !.#.;.~...........m.r.s.o.t..         ",
"        . u.v.I b d d e f d.g ).i T T T ....T T T T ..V !.#.;.w.~.{.9.3.e.m.r.x.y.z.A..         ",
"        . B.C.D.E.d e f d.g ).i x T T T ....F.T T T T ..#.;.w.~.{.<.3.e.m.r.x.s.G.H.I..         ",
"          . J.K.d e f d.g ).i x x T T T ....M U T T T T ..w.~.{.<.9.e.m.r.x.x.L.M.N..           ",
"          . O.P.e f d.g h i x x y T T T ....U Q.V T T T T ..{.<.9.e.m.r.x.x.R.S.T.U..           ",
"          . V.W.f f g h i x x y z T T T ....U V !.#.T T T ....9.e.m.r.X.x.R.L.Y.Z.`..           ",
"          .  +.+++h h i x x y z A T T T ....V !.#.;.T T T ....e.m.r.r.x.R.L.@+#+$+I..           ",
"            . %+h &+i w x y z A K L M ......!.#.-.;.~.{.......m.r.r.x.R.L.*+=+-+;+.             ",
"            . >+,+'+x x y z z K L M U U V !.#.-.;.~.{.<.9.e.m.r.r.x.R.L.*+)+#+!+~+.             ",
"              . {+x ]+y J z K L M U U V @.#.-.;.~.{.{.9.e.m.r.r.x.R.L.*+^+/+(+;+.               ",
"              . _+:+<+[+z K L M +.U V @.#.-.;.~.{.{.9.3.m.r.r.x.R.L.*+}+=+|+1+2+.               ",
"                . 3+4+5+L L M +.U V @.#.-.;.~.{.{.9.3.m.f.r.x.R.L.*+}+=+6+$+7+.                 ",
"                  . 8+9+9+M +.U V l.!.l.;.l.l.{.9.l.l.l.r.x.R.L.*+}+)+0+(+a+.                   ",
"                  . b+c+d+e+U V @.l.l.;...l...l.3.l.l.....R.R.*+}+)+f+|+g+2+.                   ",
"                    . h+i+j+@.@.!.l...l.~.l.l.3...l.l.l.s.R.*+}+)+f+6+k+7+.                     ",
"                      . l+m+m+!.-.;...~...9.....f.r.......*+}+)+n+0+o+p+.                       ",
"                      . q+r+s+;.;.~.~.{.9.3.e.f.r.x.s.R.*+}+)+n+f+t+g+2+.                       ",
"                        . u+v+w+:.~.{.9.3.e.m.r.x.s.R.*+}+)+n+f+t+x+y+.                         ",
"                          . z+A+>.<.9.3.e.m.r.x.x.R.*+}+)+)+f+t+x+B+.                           ",
"                            . C+D+E+0.e.m.r.x.x.R.*+}+)+)+f+t+x+B+.                             ",
"                              . F+G+H+I+r.x.x.R.*+}+^+)+f+t+x+B+.                               ",
"                                . J+K+L+s.x.R.L.}+^+)+f+t+x+B+.                                 ",
"                                  . M+N+O+L.S.}+^+=+0+P+x+B+.                                   ",
"                                    . Q+R+S+T+)+=+6+U+V+B+.                                     ",
"                                      . W+X+Y+Z+`+k+ @. .                                       ",
"                                        . . $+.@+@B+. .                                         ",
"                                            .  @. .                                             ",
"                                              . .                                               ",
"                                                                                                ",
"                                                                                                "};
