/* XPM */
static char * kguitar_xpm[] = {
"32 32 7 1",
" 	c None",
".	c #000000",
"+	c #1E54EA",
"@	c #002BC9",
"#	c #0048E5",
"$	c #689AFF",
"%	c #001F7C",
"                                ",
"                                ",
"          ............          ",
"        ..++++++++++++..        ",
"       .++@@@@@@@@@@@@##.       ",
"      .+@@@@@@@@@@@@@@@@#.      ",
"     .+@@@@@$$@@@@$$@@@@@#.     ",
"    .+@@@@@@$$%@@@$$%@@@@@#.    ",
"   .+@@@@@@@$$%@@$$%%@@@@@@%.   ",
"   .+@@@@@@@$$%@$$%%@@@@@@@%.   ",
"   .+@@@@@@@$$%$$%%@@@@@@@@%.   ",
"   .+@@@@@@@$$$$%%@@@@@@@@@%.   ",
"   .+@@@@@@@$$%$$@@@@@@@@@@%.   ",
"   .+@@@@@@@$$%@$$@@@@@@@@@%.   ",
"   .+@@@@@@@$$%@@$$@@@@@@@@%.   ",
"   .+@@@@@@@$$%@@@$$@@@@@@@%.   ",
"    .#@@@@@@$$%@@@$$%@@@@@%.    ",
"    .#@@@@@@@%%@@@@%%@@@@@%.    ",
"     .#@@@@@@@@@@@@@@@@@@%.     ",
"     .#@@@@@@@@@@@@@@@@@@%.     ",
"      .#@@@@++@+@@@+@@@@%.      ",
"       .#@@@+%%++@++%@@%.       ",
"       .#@@@@%@@%%@%%@@%.       ",
"        .#@@@@@@@@@@@@%.        ",
"         .#@@@@@@@@@@%.         ",
"          .#@@@@@@@@%.          ",
"           .#@@@@@@%.           ",
"            .##@@%%.            ",
"             ..#%..             ",
"               ..               ",
"                                ",
"                                "};
