/* XPM */
static char * kguitar_large_xpm[] = {
"48 48 93 2",
"  	c None",
". 	c #020204",
"+ 	c #1E56EC",
"@ 	c #12028C",
"# 	c #161AB4",
"$ 	c #120E94",
"% 	c #1A26EC",
"& 	c #160EBC",
"* 	c #021E7C",
"= 	c #1A1ADC",
"- 	c #0A0244",
"; 	c #1602A4",
"> 	c #1616BC",
", 	c #0E0A74",
"' 	c #1616B4",
") 	c #120A84",
"! 	c #1A22D4",
"~ 	c #160EAC",
"{ 	c #1A22DC",
"] 	c #161ACC",
"^ 	c #0E0264",
"/ 	c #1E2EFC",
"( 	c #160AA4",
"_ 	c #06022C",
": 	c #160294",
"< 	c #1612BC",
"[ 	c #12129C",
"} 	c #222AFC",
"| 	c #1E1AF4",
"1 	c #1A16D4",
"2 	c #161ECC",
"3 	c #1E2AFC",
"4 	c #0A0254",
"5 	c #1606A4",
"6 	c #1A12CC",
"7 	c #160EA4",
"8 	c #1E26FC",
"9 	c #1A1EDC",
"0 	c #1A16CC",
"a 	c #1612AC",
"b 	c #1E22FC",
"c 	c #12027C",
"d 	c #06023C",
"e 	c #160694",
"f 	c #1A12BC",
"g 	c #1A1ECC",
"h 	c #020214",
"i 	c #120684",
"j 	c #161AC4",
"k 	c #160E9C",
"l 	c #1E26F4",
"m 	c #1A16C4",
"n 	c #0E0E7C",
"o 	c #120A9C",
"p 	c #1A22EC",
"q 	c #0E0664",
"r 	c #160AB4",
"s 	c #0A0654",
"t 	c #1606B4",
"u 	c #02020C",
"v 	c #6A9AFC",
"w 	c #161ABC",
"x 	c #120E9C",
"y 	c #1A26F4",
"z 	c #1A0EBC",
"A 	c #1A1AE4",
"B 	c #0A0644",
"C 	c #1602AC",
"D 	c #1616C4",
"E 	c #0E0A7C",
"F 	c #160EB4",
"G 	c #1A22E4",
"H 	c #1A1ACC",
"I 	c #222EFC",
"J 	c #060234",
"K 	c #16029C",
"L 	c #1612C4",
"M 	c #1212A4",
"N 	c #1E1EFC",
"O 	c #1A16DC",
"P 	c #161ED4",
"Q 	c #0E025C",
"R 	c #1606AC",
"S 	c #1A1EE4",
"T 	c #1612B4",
"U 	c #0A023C",
"V 	c #16069C",
"W 	c #1A12C4",
"X 	c #1A1ED4",
"Y 	c #12068C",
"Z 	c #160A9C",
"` 	c #0E066C",
" .	c #160ABC",
"                                                                                                ",
"                                                                                                ",
"                                                                                                ",
"                                  . . . . . . . . . . . . . .                                   ",
"                          . . . . } 8 8 8 8 8 b b b b b N N = . . . .                           ",
"                        . I 3 3 } 8 p p G S S S S S S A A A 1 = | | 1 .                         ",
"                    . . I 3 y p G 9 g 2 ] ] ] ] ] ] D D D m m 0 O O 0 a . .                     ",
"                  . I I 3 G X 2 2 2 2 ] ] ] ] ] ] D D D D D D L L W W W 6 W .                   ",
"                . I 3 % { 2 2 2 2 2 ] ] ] ] ] ] D D D D D D D L L L < f W W 7 .                 ",
"              . I 3 G ! 2 2 2 2 2 v v v ] ] ] D D D v v v D L L L < < < & f & o .               ",
"            . / 3 G P 2 2 2 2 2 ] v v v * * D D D D v v v * * L < < < & & & z ~ ` .             ",
"            . 3 % ! P 2 2 2 2 ] ] v v v * * D D D v v v v * * < < < & & & & & F ) .             ",
"          . 3 3 { P 2 2 2 2 ] ] ] v v v * * D D v v v v * * * < < & & & & & &  .( s .           ",
"          . % G X 2 2 2 2 ] ] ] ] v v v * * D v v v v * * * < < & & & & & & & r ( B .           ",
"          . l G 2 2 2 2 ] ] ] ] ] v v v * * v v v v * * * < < & & & & & & &  .r ( s .           ",
"          . 3 G 2 2 2 ] ] ] ] ] ] v v v * v v v v * * * < < & & & & & & &  .r r r i .           ",
"        . 8 8 9 2 2 ] ] ] ] ] ] j v v v v v v v * * * < < & & & & & & &  .r r r r V 4 .         ",
"        . p G g 2 + + + + + ] j D v v v v v v v * * < < & & & & + + + + + r r r r V - .         ",
"        . G { 2 ] ] * * * * * D D v v v * v v v v * < & & & & & & * * * * * r r t V U .         ",
"        . G 9 ] ] ] ] ] ] j D D D v v v * * v v v v * & & & & & &  .r r r r r t t e d .         ",
"        . # j ] ] ] ] ] j D D D D v v v * * L v v v v * & & & &  .r r r r r t t 5 ^ h .         ",
"          . w H ] ] ] j D D D D D v v v * * < < v v v v * & &  .r r r r r t t t V U .           ",
"          . 9 9 ] ] j D D D D D D v v v * * < < & v v v v *  .r r r r r t t t t V U .           ",
"          . 9 = ] ] D D D D D D L v v v * * < & & & v v v * * r r r r t t t t R e d .           ",
"          . ' > j D D D D D D L L v v v * * & & & & v v v * * r r r r t t t R 5 ^ h .           ",
"            . ' D D D D D D L L L L < * * * & & & & &  .* * * r r r t t t t R e J .             ",
"            . M > D D D D L L L L < < < & & & & & &  .r r r r r r t t t t R 5 ^ u .             ",
"              . ' D D D D L L L < < < & & & & & &  . .r r r r r t t t t t R : J .               ",
"              . [ T D D L L L < < < & & & & & &  . .r r r r r t t t t t R K Q u .               ",
"                . n a < L L < < < & & & & & &  . .r r r r r t t t t t R ; ^ u .                 ",
"                  . a < < < < < & + & + & + +  .r + + + r t t t t t R C : J .                   ",
"                  . x a < < < & & + + & * + * + r + + * * t t t t R C K Q u .                   ",
"                    . E 7 < & & & + * + & + + r * + + + t t t t R C ; ^ u .                     ",
"                      . 7 & & & & & * & * r * * r r * * * t t R C C : J .                       ",
"                      . $ ~ & & & & &  .r r r r r t t t t t R C C K Q u .                       ",
"                        . , k F & &  .r r r r r t t t t t R C C K Q . .                         ",
"                          . , Z F r r r r r r t t t t t R R C K Q . .                           ",
"                            . ` Z r r r r r t t t t t R R C K Q . .                             ",
"                              . ` Z r r r t t t t t t R C K Q . .                               ",
"                                . ` Z r t t t t t t R C K Q . .                                 ",
"                                  . ` e R t t t t R C K Q . .                                   ",
"                                    . q Y 5 R R R ; @ 4 . .                                     ",
"                                      . U ^ e R K ^ _ . .                                       ",
"                                        . . ^ c 4 . . .                                         ",
"                                            . _ . .                                             ",
"                                              . .                                               ",
"                                                                                                ",
"                                                                                                "};
