/* XPM */
static char*play[]={
"22 22 4 1",
". c None",
"a c #008000",
"b c #00ff00",
"# c #00c000",
"......................",
".....#................",
".....##...............",
".....#a#..............",
".....#aa#.............",
".....#a#a#............",
".....#a##a#...........",
".....#a###a#..........",
".....#a####a#.........",
".....#a#####a#........",
".....#a######a#.......",
".....#a#####b#........",
".....#a####b#.........",
".....#a###b#..........",
".....#a##b#...........",
".....#a#b#............",
".....#ab#.............",
".....###..............",
".....##...............",
".....#................",
"......................",
"......................"};
