/* XPM */
static char*scandir[]={
"22 22 83 2",
".Y c #3e7575",
".s c #7ab3b3",
".D c #d9d9d9",
".b c #808080",
".O c #656565",
".8 c #a3a3a3",
"#p c #888888",
".H c #c6c6c6",
"Qt c None",
".3 c #909090",
".A c #cecece",
"#q c #747575",
".S c #5a5a5a",
"#j c #d6d6d6",
"#. c #626262",
".J c #a0a0a0",
".n c #b892b8",
".o c #c3c3c3",
".w c #6a6a6a",
"#n c #8d8d8d",
".B c #000080",
"#e c #168787",
".C c #959595",
"#m c #b8b8b8",
".R c #5f5f5f",
".i c #9d9d9d",
".t c #82b5b5",
".u c #a5a5a5",
".K c #6f6f6f",
"#h c #c4d0d0",
"#l c #929292",
".F c #777777",
".Q c #5c5c5c",
".z c #d8d8d8",
".7 c #878787",
".Z c #319494",
".# c #800080",
"#b c #0f8181",
".9 c #8f8f8f",
".m c #b37ab3",
".M c #cdcdcd",
".N c #747474",
".e c #913c91",
".k c #464646",
"#c c #848484",
"#o c #696969",
"#f c #848c8c",
"#d c #276e6e",
"#k c #cacaca",
"#g c #c4d2d2",
".r c #618181",
".0 c #419999",
".h c #148686",
".j c #939494",
".E c #d2d2d2",
".G c #b7b7b7",
".g c #9c9c9c",
".y c #bfbfbf",
".p c #a4a4a4",
".T c #1d7373",
".P c #6e6e6e",
".U c #277373",
".W c #128383",
".X c #919191",
".f c #b4b4b4",
".1 c #7e7e7e",
".l c #9b6e9b",
".I c #bcbcbc",
".a c #802b80",
".5 c #a1a1a1",
".c c #008080",
".d c #0e8080",
".V c #737373",
".x c #585858",
".6 c #d4d4d4",
".v c #7b7b7b",
".L c #9e9e9e",
".4 c #dcdcdc",
".2 c #252542",
".q c #707070",
"## c #3b6565",
"#a c #406565",
"#i c #787878",
"QtQt.#.a.b.b.bQtQtQtQtQtQtQt.c.d.b.b.b.bQtQt",
"QtQt.#.e.f.f.gQtQtQtQtQtQtQt.c.h.f.f.f.iQt.j",
".k.l.m.n.o.o.p.qQtQtQtQtQt.r.s.t.o.o.o.u.v.w",
".x.y.z.A.o.o.p.q.B.B.BQtQt.C.D.E.o.o.o.u.F.x",
".x.G.H.I.I.I.J.KQtQt.BQtQt.L.M.I.I.I.I.J.N.x",
".x.F.b.b.b.b.b.OQtQt.BQtQt.b.C.b.b.b.b.P.x.x",
"QtQt.Q.Q.Q.Q.QQtQtQt.BQtQtQt.R.Q.Q.Q.Q.SQtQt",
"QtQtQtQtQtQtQtQtQtQt.BQtQtQt.T.U.V.V.V.VQtQt",
"QtQtQtQtQtQtQtQtQtQt.BQtQtQt.c.W.L.L.L.XQtQt",
"QtQtQtQtQtQtQtQtQtQt.BQtQt.Y.Z.0.o.o.o.u.1.F",
"QtQtQtQtQtQtQtQtQtQt.B.B.2.3.4.D.o.o.o.u.F.x",
"QtQtQtQtQtQtQtQtQtQt.BQtQt.5.6.o.o.o.o.u.F.x",
"QtQtQtQtQtQtQtQtQtQt.BQtQt.7.8.9.9.9.9.v.R.x",
"QtQtQtQtQtQtQtQtQtQt.BQtQtQt.V.w.w.w.w#.QtQt",
"QtQtQtQtQtQtQtQtQtQt.BQtQtQt###a.O.O.O.OQtQt",
"QtQtQtQtQtQtQtQtQtQt.BQtQtQt.c#b.7.7.7#cQtQt",
"QtQtQtQtQtQtQtQtQtQt.BQtQt#d.c#e.o.o.o.u.b.b",
"QtQtQtQtQtQtQtQtQtQt.BQtQt#f#g#h.o.o.o.u#i.Q",
"QtQtQtQtQtQtQtQtQtQtQtQtQt.g#j#k.o.o.o.u.F.x",
"QtQtQtQtQtQtQtQtQtQtQtQtQt#l#m.u.u.u.u#n#o.x",
"QtQtQtQtQtQtQtQtQtQtQtQtQtQt#p.F.F.F.F#oQt#q",
"QtQtQtQtQtQtQtQtQtQtQtQtQtQt.x.x.x.x.x.xQtQt"};
